<svg id="a5470c4f-5811-4d24-98cf-e91e254a34f6" data-name="NEONEX Logo" xmlns="http://www.w3.org/2000/svg" viewBox="0 0 425.16 73.12"><polygon points="365.08 1.01 347.98 1.01 378.06 36.42 347.98 71.83 365.08 71.83 395.09 36.42 365.08 1.01" style="fill:#ed6a5c"/><polygon points="400.64 29.87 425.16 1.01 408.07 1.01 392.13 19.82 400.64 29.87" style="fill:#163e6c"/><polygon points="408.07 71.83 425.16 71.83 400.64 42.97 392.13 53.02 408.07 71.83" style="fill:#163e6c"/><path d="M111.21,131.77,78.79,87.53v44.24H64.35V61.07H77.07l32.72,44.34V61.07h14.45v70.7Z" transform="translate(-64.35 -59.86)" style="fill:#163e6c"/><path d="M140.42,131.77V61.07h45.35V73.29H154.86v16h30.91v12.22H154.86v18.08h30.91v12.22Z" transform="translate(-64.35 -59.86)" style="fill:#163e6c"/><path d="M233.07,133c-21,0-37.06-16.36-37.06-36.56s16.06-36.56,37.06-36.56,37,16.36,37,36.56S254,133,233.07,133Zm0-60.5c-12.52,0-21.61,10.51-21.61,23.94s9.09,23.94,21.61,23.94,21.52-10.51,21.52-23.94S245.5,72.48,233.07,72.48Z" transform="translate(-64.35 -59.86)" style="fill:#163e6c"/><path d="M330.74,131.77,298.32,87.53v44.24H283.88V61.07H296.6l32.73,44.34V61.07h14.44v70.7Z" transform="translate(-64.35 -59.86)" style="fill:#163e6c"/><path d="M358.43,131.77V61.07h45.35V73.29H372.87v16h30.91v12.22H372.87v18.08h30.91v12.22Z" transform="translate(-64.35 -59.86)" style="fill:#163e6c"/></svg>